<mxfile host="Electron" modified="2024-02-05T04:22:07.317Z" agent="Mozilla/5.0 (Windows NT 10.0; Win64; x64) AppleWebKit/537.36 (KHTML, like Gecko) draw.io/23.0.2 Chrome/120.0.6099.109 Electron/28.1.0 Safari/537.36" etag="dyxd-HitmDbfH6guFjAi" version="23.0.2" type="device">
  <diagram name="Página-1" id="hTAZJod6gD0zeuS_47gb">
    <mxGraphModel dx="2231" dy="814" grid="1" gridSize="10" guides="1" tooltips="1" connect="1" arrows="1" fold="1" page="1" pageScale="1" pageWidth="827" pageHeight="1169" background="#FFE6CC" math="0" shadow="0">
      <root>
        <mxCell id="0" />
        <mxCell id="1" parent="0" />
        <mxCell id="Xx0PAyjNFP5IWGpz7QTX-1" value="4. Hacer una función de tipo void (porque no va a devolver nada) llamada “positivoNegativoCero” &#xa;que reciba un número por valor y una variable por referencia. Que analice el número y escriba &#xa;variable recibida por referencia con:&#xa;&#xa;a. 1 si el número es positivo.&#xa;b. -1 si el número es negativo.&#xa;c. 0 si el número es cero." style="text;whiteSpace=wrap;html=1;fontSize=20;fontFamily=Comic Sans MS;fontStyle=1;fontColor=#000000;" parent="1" vertex="1">
          <mxGeometry x="-20" y="20" width="970" height="190" as="geometry" />
        </mxCell>
        <mxCell id="aS_hNzy2sCoI3CQcylic-1" value="" style="shape=crossbar;whiteSpace=wrap;html=1;rounded=1;direction=south;hachureGap=4;fontFamily=Architects Daughter;fontSource=https%3A%2F%2Ffonts.googleapis.com%2Fcss%3Ffamily%3DArchitects%2BDaughter;fontSize=20;dashed=1;dashPattern=1 2;strokeColor=#ae4132;strokeWidth=3;fillColor=#fad9d5;" parent="1" vertex="1">
          <mxGeometry x="590" y="210" width="20" height="1110" as="geometry" />
        </mxCell>
        <mxCell id="KDF5BMpV5rd6oGr7RErc-156" value="" style="group;aspect=fixed;" vertex="1" connectable="0" parent="1">
          <mxGeometry x="200" y="250" width="310" height="560" as="geometry" />
        </mxCell>
        <mxCell id="KDF5BMpV5rd6oGr7RErc-9" value="" style="strokeWidth=2;html=1;shape=mxgraph.flowchart.start_2;whiteSpace=wrap;rounded=0;labelBackgroundColor=none;strokeColor=#000000;align=center;verticalAlign=middle;fontFamily=Helvetica;fontSize=12;fontColor=default;fillColor=#d5e8d4;" vertex="1" parent="KDF5BMpV5rd6oGr7RErc-156">
          <mxGeometry x="110" width="50" height="40" as="geometry" />
        </mxCell>
        <mxCell id="KDF5BMpV5rd6oGr7RErc-10" value="" style="group;aspect=fixed;" vertex="1" connectable="0" parent="KDF5BMpV5rd6oGr7RErc-156">
          <mxGeometry x="11.25" y="68.49000000000001" width="247.5" height="60" as="geometry" />
        </mxCell>
        <mxCell id="KDF5BMpV5rd6oGr7RErc-11" value="" style="shape=hexagon;perimeter=hexagonPerimeter2;whiteSpace=wrap;html=1;fixedSize=1;rounded=0;labelBackgroundColor=none;strokeColor=#4f514d;strokeWidth=2;align=center;verticalAlign=middle;fontFamily=Helvetica;fontSize=12;fillColor=#d5e8d4;aspect=fixed;" vertex="1" parent="KDF5BMpV5rd6oGr7RErc-10">
          <mxGeometry width="247.4950100806452" height="59.998790322580646" as="geometry" />
        </mxCell>
        <mxCell id="KDF5BMpV5rd6oGr7RErc-12" value="" style="line;strokeWidth=2;html=1;rounded=0;labelBackgroundColor=none;align=center;verticalAlign=middle;fontFamily=Helvetica;fontSize=12;strokeColor=#252323;aspect=fixed;" vertex="1" parent="KDF5BMpV5rd6oGr7RErc-10">
          <mxGeometry y="22.5" width="247.4950100806452" height="14.999697580645162" as="geometry" />
        </mxCell>
        <mxCell id="KDF5BMpV5rd6oGr7RErc-13" value="" style="line;strokeWidth=2;direction=south;html=1;rounded=0;labelBackgroundColor=none;strokeColor=#000000;align=center;verticalAlign=middle;fontFamily=Helvetica;fontSize=12;fontColor=default;fillColor=#d5e8d4;aspect=fixed;" vertex="1" parent="KDF5BMpV5rd6oGr7RErc-10">
          <mxGeometry x="157.49999999999997" y="29.999999999999996" width="7.499848790322581" height="29.999395161290323" as="geometry" />
        </mxCell>
        <mxCell id="KDF5BMpV5rd6oGr7RErc-19" value="void main" style="text;strokeColor=none;align=center;fillColor=none;html=1;verticalAlign=middle;whiteSpace=wrap;rounded=0;fontSize=20;fontFamily=Architects Daughter;fontStyle=1;fontColor=#000000;" vertex="1" parent="KDF5BMpV5rd6oGr7RErc-10">
          <mxGeometry x="33.75" y="-12.5" width="180" height="50" as="geometry" />
        </mxCell>
        <mxCell id="KDF5BMpV5rd6oGr7RErc-14" value="I" style="text;strokeColor=none;align=center;fillColor=none;html=1;verticalAlign=middle;whiteSpace=wrap;rounded=0;fontSize=22;fontFamily=Architects Daughter;fontStyle=1;fontColor=#000000;" vertex="1" parent="KDF5BMpV5rd6oGr7RErc-156">
          <mxGeometry x="105" y="5" width="60" height="30" as="geometry" />
        </mxCell>
        <mxCell id="KDF5BMpV5rd6oGr7RErc-133" value="" style="group;aspect=fixed;" vertex="1" connectable="0" parent="KDF5BMpV5rd6oGr7RErc-156">
          <mxGeometry x="61.25" y="240" width="147.5" height="185" as="geometry" />
        </mxCell>
        <mxCell id="KDF5BMpV5rd6oGr7RErc-139" value="" style="group;aspect=fixed;" vertex="1" connectable="0" parent="KDF5BMpV5rd6oGr7RErc-133">
          <mxGeometry width="147.5" height="110" as="geometry" />
        </mxCell>
        <mxCell id="KDF5BMpV5rd6oGr7RErc-20" value="" style="shape=trapezoid;perimeter=trapezoidPerimeter;whiteSpace=wrap;html=1;fixedSize=1;rounded=0;labelBackgroundColor=none;strokeColor=#121211;strokeWidth=2;align=center;verticalAlign=middle;fontFamily=Helvetica;fontSize=12;fontColor=default;fillColor=#d5e8d4;direction=west;container=1;" vertex="1" parent="KDF5BMpV5rd6oGr7RErc-139">
          <mxGeometry width="147.5" height="40" as="geometry">
            <mxRectangle x="-1020" y="-650" width="50" height="40" as="alternateBounds" />
          </mxGeometry>
        </mxCell>
        <mxCell id="KDF5BMpV5rd6oGr7RErc-24" value="a" style="text;strokeColor=none;align=center;fillColor=none;html=1;verticalAlign=middle;whiteSpace=wrap;rounded=0;fontSize=24;fontFamily=Architects Daughter;fontStyle=1;fontColor=#000000;" vertex="1" parent="KDF5BMpV5rd6oGr7RErc-20">
          <mxGeometry x="42.5" y="5" width="60" height="30" as="geometry" />
        </mxCell>
        <mxCell id="KDF5BMpV5rd6oGr7RErc-160" value="" style="line;strokeWidth=3;direction=south;html=1;hachureGap=4;fontFamily=Architects Daughter;fontSource=https://fonts.googleapis.com/css?family=Architects+Daughter;fontSize=20;strokeColor=#000000;" vertex="1" parent="KDF5BMpV5rd6oGr7RErc-139">
          <mxGeometry x="63.75" y="40" width="10" height="30" as="geometry" />
        </mxCell>
        <mxCell id="KDF5BMpV5rd6oGr7RErc-142" value="" style="rounded=0;whiteSpace=wrap;html=1;labelBackgroundColor=none;strokeColor=#0f100e;strokeWidth=2;align=center;verticalAlign=middle;fontFamily=Helvetica;fontSize=12;fontColor=default;fillColor=#d5e8d4;" vertex="1" parent="KDF5BMpV5rd6oGr7RErc-156">
          <mxGeometry x="70" y="160" width="130" height="40" as="geometry" />
        </mxCell>
        <mxCell id="KDF5BMpV5rd6oGr7RErc-143" value="&lt;b&gt;&lt;font color=&quot;#000000&quot;&gt;a, b = 10&lt;/font&gt;&lt;/b&gt;" style="text;strokeColor=none;align=center;fillColor=none;html=1;verticalAlign=middle;whiteSpace=wrap;rounded=0;fontSize=20;fontFamily=Architects Daughter;" vertex="1" parent="KDF5BMpV5rd6oGr7RErc-156">
          <mxGeometry x="80" y="165" width="100" height="30" as="geometry" />
        </mxCell>
        <mxCell id="KDF5BMpV5rd6oGr7RErc-152" value="" style="group;aspect=fixed;" vertex="1" connectable="0" parent="KDF5BMpV5rd6oGr7RErc-156">
          <mxGeometry y="310" width="310" height="250" as="geometry" />
        </mxCell>
        <mxCell id="KDF5BMpV5rd6oGr7RErc-131" value="" style="group;aspect=fixed;" vertex="1" connectable="0" parent="KDF5BMpV5rd6oGr7RErc-152">
          <mxGeometry x="100" y="200" width="60" height="50" as="geometry" />
        </mxCell>
        <mxCell id="KDF5BMpV5rd6oGr7RErc-129" value="" style="strokeWidth=2;html=1;shape=mxgraph.flowchart.start_2;whiteSpace=wrap;rounded=0;labelBackgroundColor=none;strokeColor=#000000;align=center;verticalAlign=middle;fontFamily=Helvetica;fontSize=12;fontColor=default;fillColor=#d5e8d4;" vertex="1" parent="KDF5BMpV5rd6oGr7RErc-131">
          <mxGeometry x="10" width="40" height="50" as="geometry" />
        </mxCell>
        <mxCell id="KDF5BMpV5rd6oGr7RErc-130" value="&lt;b&gt;&lt;font color=&quot;#000000&quot;&gt;F&lt;/font&gt;&lt;/b&gt;" style="text;strokeColor=none;align=center;fillColor=none;html=1;verticalAlign=middle;whiteSpace=wrap;rounded=0;fontSize=20;fontFamily=Architects Daughter;" vertex="1" parent="KDF5BMpV5rd6oGr7RErc-131">
          <mxGeometry y="10" width="60" height="30" as="geometry" />
        </mxCell>
        <mxCell id="KDF5BMpV5rd6oGr7RErc-132" style="edgeStyle=orthogonalEdgeStyle;rounded=0;sketch=1;hachureGap=4;jiggle=2;curveFitting=1;orthogonalLoop=1;jettySize=auto;html=1;exitX=0.5;exitY=1;exitDx=0;exitDy=0;fontFamily=Architects Daughter;fontSource=https%3A%2F%2Ffonts.googleapis.com%2Fcss%3Ffamily%3DArchitects%2BDaughter;fontSize=16;" edge="1" parent="KDF5BMpV5rd6oGr7RErc-131" source="KDF5BMpV5rd6oGr7RErc-130" target="KDF5BMpV5rd6oGr7RErc-130">
          <mxGeometry relative="1" as="geometry" />
        </mxCell>
        <mxCell id="KDF5BMpV5rd6oGr7RErc-141" style="edgeStyle=orthogonalEdgeStyle;rounded=0;sketch=1;hachureGap=4;jiggle=2;curveFitting=1;orthogonalLoop=1;jettySize=auto;html=1;exitX=0.5;exitY=1;exitDx=0;exitDy=0;fontFamily=Architects Daughter;fontSource=https%3A%2F%2Ffonts.googleapis.com%2Fcss%3Ffamily%3DArchitects%2BDaughter;fontSize=16;" edge="1" parent="KDF5BMpV5rd6oGr7RErc-131" source="KDF5BMpV5rd6oGr7RErc-130" target="KDF5BMpV5rd6oGr7RErc-130">
          <mxGeometry relative="1" as="geometry" />
        </mxCell>
        <mxCell id="KDF5BMpV5rd6oGr7RErc-144" value="" style="group;aspect=fixed;" vertex="1" connectable="0" parent="KDF5BMpV5rd6oGr7RErc-152">
          <mxGeometry width="310" height="81.36000000000001" as="geometry" />
        </mxCell>
        <mxCell id="KDF5BMpV5rd6oGr7RErc-145" value="" style="shape=hexagon;perimeter=hexagonPerimeter2;whiteSpace=wrap;html=1;fixedSize=1;rounded=0;labelBackgroundColor=none;strokeColor=#4f514d;strokeWidth=2;align=center;verticalAlign=middle;fontFamily=Helvetica;fontSize=12;fillColor=#d5e8d4;aspect=fixed;" vertex="1" parent="KDF5BMpV5rd6oGr7RErc-144">
          <mxGeometry width="309.99375000000003" height="75.15" as="geometry" />
        </mxCell>
        <mxCell id="KDF5BMpV5rd6oGr7RErc-146" value="" style="line;strokeWidth=2;html=1;rounded=0;labelBackgroundColor=none;align=center;verticalAlign=middle;fontFamily=Helvetica;fontSize=12;strokeColor=#252323;aspect=fixed;" vertex="1" parent="KDF5BMpV5rd6oGr7RErc-144">
          <mxGeometry y="28.181250000000002" width="309.99375000000003" height="18.7875" as="geometry" />
        </mxCell>
        <mxCell id="KDF5BMpV5rd6oGr7RErc-147" value="" style="line;strokeWidth=2;direction=south;html=1;rounded=0;labelBackgroundColor=none;strokeColor=#000000;align=center;verticalAlign=middle;fontFamily=Helvetica;fontSize=12;fontColor=default;fillColor=#d5e8d4;aspect=fixed;" vertex="1" parent="KDF5BMpV5rd6oGr7RErc-144">
          <mxGeometry x="197.27272727272725" y="37.575" width="9.39375" height="37.575" as="geometry" />
        </mxCell>
        <mxCell id="KDF5BMpV5rd6oGr7RErc-148" value="&lt;b&gt;&lt;font color=&quot;#000000&quot;&gt;&amp;nbsp; &amp;nbsp;positivoNegativoCero&lt;/font&gt;&lt;/b&gt;" style="text;whiteSpace=wrap;html=1;fontSize=20;fontFamily=Architects Daughter;" vertex="1" parent="KDF5BMpV5rd6oGr7RErc-144">
          <mxGeometry x="30" width="270" height="50" as="geometry" />
        </mxCell>
        <mxCell id="KDF5BMpV5rd6oGr7RErc-149" value="&lt;font color=&quot;#000000&quot; style=&quot;font-size: 23px;&quot;&gt;&lt;b&gt;b&lt;/b&gt;&lt;/font&gt;" style="text;strokeColor=none;align=center;fillColor=none;html=1;verticalAlign=middle;whiteSpace=wrap;rounded=0;fontSize=20;fontFamily=Architects Daughter;" vertex="1" parent="KDF5BMpV5rd6oGr7RErc-144">
          <mxGeometry x="210" y="41.360000000000014" width="60" height="30" as="geometry" />
        </mxCell>
        <mxCell id="KDF5BMpV5rd6oGr7RErc-155" value="a" style="text;strokeColor=none;align=center;fillColor=none;html=1;verticalAlign=middle;whiteSpace=wrap;rounded=0;fontSize=24;fontFamily=Architects Daughter;fontStyle=1;fontColor=#000000;" vertex="1" parent="KDF5BMpV5rd6oGr7RErc-144">
          <mxGeometry x="70" y="31.360000000000014" width="90" height="50" as="geometry" />
        </mxCell>
        <mxCell id="KDF5BMpV5rd6oGr7RErc-150" value="" style="shape=trapezoid;perimeter=trapezoidPerimeter;whiteSpace=wrap;html=1;fixedSize=1;rounded=0;labelBackgroundColor=none;strokeColor=#0F140C;strokeWidth=2;align=center;verticalAlign=middle;fontFamily=Helvetica;fontSize=12;fontColor=default;fillColor=#d5e8d4;" vertex="1" parent="KDF5BMpV5rd6oGr7RErc-152">
          <mxGeometry x="77.5" y="114.5" width="125" height="50" as="geometry" />
        </mxCell>
        <mxCell id="KDF5BMpV5rd6oGr7RErc-151" value="&lt;font color=&quot;#000000&quot; style=&quot;font-size: 23px;&quot;&gt;&lt;b&gt;a, b&lt;/b&gt;&lt;/font&gt;" style="text;strokeColor=none;align=center;fillColor=none;html=1;verticalAlign=middle;whiteSpace=wrap;rounded=0;fontSize=20;fontFamily=Architects Daughter;" vertex="1" parent="KDF5BMpV5rd6oGr7RErc-152">
          <mxGeometry x="110" y="124.5" width="60" height="30" as="geometry" />
        </mxCell>
        <mxCell id="KDF5BMpV5rd6oGr7RErc-161" value="" style="line;strokeWidth=3;direction=south;html=1;hachureGap=4;fontFamily=Architects Daughter;fontSource=https://fonts.googleapis.com/css?family=Architects+Daughter;fontSize=20;strokeColor=#000000;" vertex="1" parent="KDF5BMpV5rd6oGr7RErc-152">
          <mxGeometry x="25" y="74.5" width="210" height="40" as="geometry" />
        </mxCell>
        <mxCell id="KDF5BMpV5rd6oGr7RErc-162" value="" style="line;strokeWidth=3;direction=south;html=1;hachureGap=4;fontFamily=Architects Daughter;fontSource=https://fonts.googleapis.com/css?family=Architects+Daughter;fontSize=20;strokeColor=#000000;" vertex="1" parent="KDF5BMpV5rd6oGr7RErc-152">
          <mxGeometry x="125" y="164.5" width="10" height="35.5" as="geometry" />
        </mxCell>
        <mxCell id="KDF5BMpV5rd6oGr7RErc-157" value="" style="line;strokeWidth=3;direction=south;html=1;hachureGap=4;fontFamily=Architects Daughter;fontSource=https%3A%2F%2Ffonts.googleapis.com%2Fcss%3Ffamily%3DArchitects%2BDaughter;fontSize=20;strokeColor=#000000;" vertex="1" parent="KDF5BMpV5rd6oGr7RErc-156">
          <mxGeometry x="130" y="40" width="10" height="30" as="geometry" />
        </mxCell>
        <mxCell id="KDF5BMpV5rd6oGr7RErc-158" value="" style="line;strokeWidth=3;direction=south;html=1;hachureGap=4;fontFamily=Architects Daughter;fontSource=https://fonts.googleapis.com/css?family=Architects+Daughter;fontSize=20;strokeColor=#000000;" vertex="1" parent="KDF5BMpV5rd6oGr7RErc-156">
          <mxGeometry x="125" y="128.49" width="10" height="31.51" as="geometry" />
        </mxCell>
        <mxCell id="KDF5BMpV5rd6oGr7RErc-159" value="" style="line;strokeWidth=3;direction=south;html=1;hachureGap=4;fontFamily=Architects Daughter;fontSource=https://fonts.googleapis.com/css?family=Architects+Daughter;fontSize=20;strokeColor=#000000;" vertex="1" parent="KDF5BMpV5rd6oGr7RErc-156">
          <mxGeometry x="125" y="200" width="10" height="40" as="geometry" />
        </mxCell>
        <mxCell id="KDF5BMpV5rd6oGr7RErc-180" value="" style="group;aspect=fixed;" vertex="1" connectable="0" parent="1">
          <mxGeometry x="620" y="260" width="600" height="625" as="geometry" />
        </mxCell>
        <mxCell id="KDF5BMpV5rd6oGr7RErc-154" value="" style="group;aspect=fixed;" vertex="1" connectable="0" parent="KDF5BMpV5rd6oGr7RErc-180">
          <mxGeometry width="600" height="625" as="geometry" />
        </mxCell>
        <mxCell id="KDF5BMpV5rd6oGr7RErc-153" value="" style="group;aspect=fixed;" vertex="1" connectable="0" parent="KDF5BMpV5rd6oGr7RErc-154">
          <mxGeometry y="125" width="600" height="500" as="geometry" />
        </mxCell>
        <mxCell id="KDF5BMpV5rd6oGr7RErc-134" value="" style="group;aspect=fixed;" vertex="1" connectable="0" parent="KDF5BMpV5rd6oGr7RErc-153">
          <mxGeometry width="600" height="390" as="geometry" />
        </mxCell>
        <mxCell id="KDF5BMpV5rd6oGr7RErc-189" value="" style="group;aspect=fixed;" vertex="1" connectable="0" parent="KDF5BMpV5rd6oGr7RErc-134">
          <mxGeometry x="20" width="570" height="390" as="geometry" />
        </mxCell>
        <mxCell id="KDF5BMpV5rd6oGr7RErc-115" value="" style="group;aspect=fixed;" vertex="1" connectable="0" parent="KDF5BMpV5rd6oGr7RErc-189">
          <mxGeometry x="300" y="120" width="130" height="90" as="geometry" />
        </mxCell>
        <mxCell id="KDF5BMpV5rd6oGr7RErc-116" value="" style="rhombus;whiteSpace=wrap;html=1;rounded=0;labelBackgroundColor=none;strokeColor=#0F140C;strokeWidth=2;align=center;verticalAlign=middle;fontFamily=Helvetica;fontSize=12;fontColor=default;fillColor=#d5e8d4;aspect=fixed;" vertex="1" parent="KDF5BMpV5rd6oGr7RErc-115">
          <mxGeometry width="130" height="90" as="geometry" />
        </mxCell>
        <mxCell id="KDF5BMpV5rd6oGr7RErc-117" value="&lt;b&gt;&lt;font color=&quot;#000000&quot;&gt;n1 == 0&lt;/font&gt;&lt;/b&gt;" style="text;strokeColor=none;align=center;fillColor=none;html=1;verticalAlign=middle;whiteSpace=wrap;rounded=0;fontSize=20;fontFamily=Architects Daughter;aspect=fixed;" vertex="1" parent="KDF5BMpV5rd6oGr7RErc-115">
          <mxGeometry x="20" y="10" width="90" height="60" as="geometry" />
        </mxCell>
        <mxCell id="KDF5BMpV5rd6oGr7RErc-118" value="" style="group;aspect=fixed;" vertex="1" connectable="0" parent="KDF5BMpV5rd6oGr7RErc-189">
          <mxGeometry x="132.5" width="125" height="105" as="geometry" />
        </mxCell>
        <mxCell id="KDF5BMpV5rd6oGr7RErc-119" value="" style="rhombus;whiteSpace=wrap;html=1;rounded=0;labelBackgroundColor=none;strokeColor=#0F140C;strokeWidth=2;align=center;verticalAlign=middle;fontFamily=Helvetica;fontSize=12;fontColor=default;fillColor=#d5e8d4;aspect=fixed;" vertex="1" parent="KDF5BMpV5rd6oGr7RErc-118">
          <mxGeometry width="125" height="105" as="geometry" />
        </mxCell>
        <mxCell id="KDF5BMpV5rd6oGr7RErc-120" value="n1 &amp;gt; 1" style="text;strokeColor=none;align=center;fillColor=none;html=1;verticalAlign=middle;whiteSpace=wrap;rounded=0;fontSize=20;fontFamily=Architects Daughter;fontStyle=1;fontColor=#000000;aspect=fixed;" vertex="1" parent="KDF5BMpV5rd6oGr7RErc-118">
          <mxGeometry y="25" width="120" height="50" as="geometry" />
        </mxCell>
        <mxCell id="KDF5BMpV5rd6oGr7RErc-165" value="" style="line;strokeWidth=3;html=1;hachureGap=4;fontFamily=Architects Daughter;fontSource=https%3A%2F%2Ffonts.googleapis.com%2Fcss%3Ffamily%3DArchitects%2BDaughter;fontSize=20;strokeColor=#000000;" vertex="1" parent="KDF5BMpV5rd6oGr7RErc-189">
          <mxGeometry x="50" y="47.5" width="82.5" height="10" as="geometry" />
        </mxCell>
        <mxCell id="KDF5BMpV5rd6oGr7RErc-166" value="" style="line;strokeWidth=3;html=1;hachureGap=4;fontFamily=Architects Daughter;fontSource=https://fonts.googleapis.com/css?family=Architects+Daughter;fontSize=20;strokeColor=#000000;" vertex="1" parent="KDF5BMpV5rd6oGr7RErc-189">
          <mxGeometry x="257.5" y="47.5" width="122.5" height="10" as="geometry" />
        </mxCell>
        <mxCell id="KDF5BMpV5rd6oGr7RErc-169" value="" style="line;strokeWidth=3;direction=south;html=1;hachureGap=4;fontFamily=Architects Daughter;fontSource=https://fonts.googleapis.com/css?family=Architects+Daughter;fontSize=20;strokeColor=#000000;" vertex="1" parent="KDF5BMpV5rd6oGr7RErc-189">
          <mxGeometry x="50" y="180" width="10" height="210" as="geometry" />
        </mxCell>
        <mxCell id="KDF5BMpV5rd6oGr7RErc-171" value="" style="line;strokeWidth=3;direction=south;html=1;hachureGap=4;fontFamily=Architects Daughter;fontSource=https://fonts.googleapis.com/css?family=Architects+Daughter;fontSize=20;strokeColor=#000000;" vertex="1" parent="KDF5BMpV5rd6oGr7RErc-189">
          <mxGeometry x="360" y="350" width="10" height="40" as="geometry" />
        </mxCell>
        <mxCell id="KDF5BMpV5rd6oGr7RErc-167" value="" style="line;strokeWidth=3;html=1;hachureGap=4;fontFamily=Architects Daughter;fontSource=https://fonts.googleapis.com/css?family=Architects+Daughter;fontSize=20;strokeColor=#000000;" vertex="1" parent="KDF5BMpV5rd6oGr7RErc-189">
          <mxGeometry x="250" y="160" width="50" height="10" as="geometry" />
        </mxCell>
        <mxCell id="KDF5BMpV5rd6oGr7RErc-181" value="" style="line;strokeWidth=3;html=1;hachureGap=4;fontFamily=Architects Daughter;fontSource=https://fonts.googleapis.com/css?family=Architects+Daughter;fontSize=20;strokeColor=#000000;" vertex="1" parent="KDF5BMpV5rd6oGr7RErc-189">
          <mxGeometry x="430" y="160" width="80" height="10" as="geometry" />
        </mxCell>
        <mxCell id="KDF5BMpV5rd6oGr7RErc-186" value="" style="group;aspect=fixed;" vertex="1" connectable="0" parent="KDF5BMpV5rd6oGr7RErc-189">
          <mxGeometry y="130" width="110" height="50" as="geometry" />
        </mxCell>
        <mxCell id="KDF5BMpV5rd6oGr7RErc-183" value="" style="rounded=1;whiteSpace=wrap;html=1;absoluteArcSize=1;arcSize=14;strokeWidth=2;labelBackgroundColor=none;strokeColor=#0F140C;align=center;verticalAlign=middle;fontFamily=Helvetica;fontSize=12;fontColor=default;fillColor=#d5e8d4;" vertex="1" parent="KDF5BMpV5rd6oGr7RErc-186">
          <mxGeometry width="110" height="50" as="geometry" />
        </mxCell>
        <mxCell id="KDF5BMpV5rd6oGr7RErc-123" value="n2 = 1" style="text;strokeColor=none;align=center;fillColor=none;html=1;verticalAlign=middle;whiteSpace=wrap;rounded=0;fontSize=23;fontFamily=Architects Daughter;fontStyle=1;fontColor=#000000;aspect=fixed;" vertex="1" parent="KDF5BMpV5rd6oGr7RErc-186">
          <mxGeometry x="5" width="100" height="50" as="geometry" />
        </mxCell>
        <mxCell id="KDF5BMpV5rd6oGr7RErc-187" value="" style="group;aspect=fixed;" vertex="1" connectable="0" parent="KDF5BMpV5rd6oGr7RErc-189">
          <mxGeometry x="187" y="260" width="120" height="50" as="geometry" />
        </mxCell>
        <mxCell id="KDF5BMpV5rd6oGr7RErc-184" value="" style="rounded=1;whiteSpace=wrap;html=1;absoluteArcSize=1;arcSize=14;strokeWidth=2;labelBackgroundColor=none;strokeColor=#0F140C;align=center;verticalAlign=middle;fontFamily=Helvetica;fontSize=12;fontColor=default;fillColor=#d5e8d4;" vertex="1" parent="KDF5BMpV5rd6oGr7RErc-187">
          <mxGeometry width="120" height="50" as="geometry" />
        </mxCell>
        <mxCell id="KDF5BMpV5rd6oGr7RErc-124" value="n2 = 0" style="text;strokeColor=none;align=center;fillColor=none;html=1;verticalAlign=middle;whiteSpace=wrap;rounded=0;fontSize=23;fontFamily=Architects Daughter;fontStyle=1;fontColor=#000000;aspect=fixed;" vertex="1" parent="KDF5BMpV5rd6oGr7RErc-187">
          <mxGeometry x="10" width="100" height="50" as="geometry" />
        </mxCell>
        <mxCell id="KDF5BMpV5rd6oGr7RErc-188" value="" style="group;aspect=fixed;" vertex="1" connectable="0" parent="KDF5BMpV5rd6oGr7RErc-189">
          <mxGeometry x="450" y="260" width="120" height="50" as="geometry" />
        </mxCell>
        <mxCell id="KDF5BMpV5rd6oGr7RErc-185" value="" style="rounded=1;whiteSpace=wrap;html=1;absoluteArcSize=1;arcSize=14;strokeWidth=2;labelBackgroundColor=none;strokeColor=#0F140C;align=center;verticalAlign=middle;fontFamily=Helvetica;fontSize=12;fontColor=default;fillColor=#d5e8d4;" vertex="1" parent="KDF5BMpV5rd6oGr7RErc-188">
          <mxGeometry width="120" height="50" as="geometry" />
        </mxCell>
        <mxCell id="KDF5BMpV5rd6oGr7RErc-125" value="n2 = -1" style="text;strokeColor=none;align=center;fillColor=none;html=1;verticalAlign=middle;whiteSpace=wrap;rounded=0;fontSize=23;fontFamily=Architects Daughter;fontStyle=1;fontColor=#000000;aspect=fixed;" vertex="1" parent="KDF5BMpV5rd6oGr7RErc-188">
          <mxGeometry x="10" width="100" height="50" as="geometry" />
        </mxCell>
        <mxCell id="KDF5BMpV5rd6oGr7RErc-178" value="" style="line;strokeWidth=3;direction=south;html=1;hachureGap=4;fontFamily=Architects Daughter;fontSource=https://fonts.googleapis.com/css?family=Architects+Daughter;fontSize=20;strokeColor=#000000;" vertex="1" parent="KDF5BMpV5rd6oGr7RErc-153">
          <mxGeometry x="210" y="390" width="10" height="40" as="geometry" />
        </mxCell>
        <mxCell id="KDF5BMpV5rd6oGr7RErc-136" value="" style="strokeWidth=2;html=1;shape=mxgraph.flowchart.start_2;whiteSpace=wrap;rounded=0;labelBackgroundColor=none;strokeColor=#000000;align=center;verticalAlign=middle;fontFamily=Helvetica;fontSize=12;fontColor=default;fillColor=#d5e8d4;container=0;" vertex="1" parent="KDF5BMpV5rd6oGr7RErc-153">
          <mxGeometry x="195" y="430" width="40" height="50" as="geometry" />
        </mxCell>
        <mxCell id="KDF5BMpV5rd6oGr7RErc-137" value="&lt;b&gt;&lt;font color=&quot;#000000&quot;&gt;F&lt;/font&gt;&lt;/b&gt;" style="text;strokeColor=none;align=center;fillColor=none;html=1;verticalAlign=middle;whiteSpace=wrap;rounded=0;fontSize=20;fontFamily=Architects Daughter;container=0;" vertex="1" parent="KDF5BMpV5rd6oGr7RErc-153">
          <mxGeometry x="185" y="440" width="60" height="30" as="geometry" />
        </mxCell>
        <mxCell id="KDF5BMpV5rd6oGr7RErc-138" style="edgeStyle=orthogonalEdgeStyle;rounded=0;sketch=1;hachureGap=4;jiggle=2;curveFitting=1;orthogonalLoop=1;jettySize=auto;html=1;exitX=0.5;exitY=1;exitDx=0;exitDy=0;fontFamily=Architects Daughter;fontSource=https://fonts.googleapis.com/css?family=Architects+Daughter;fontSize=16;" edge="1" parent="KDF5BMpV5rd6oGr7RErc-153" source="KDF5BMpV5rd6oGr7RErc-137" target="KDF5BMpV5rd6oGr7RErc-137">
          <mxGeometry relative="1" as="geometry" />
        </mxCell>
        <mxCell id="KDF5BMpV5rd6oGr7RErc-182" value="" style="group;aspect=fixed;" vertex="1" connectable="0" parent="KDF5BMpV5rd6oGr7RErc-154">
          <mxGeometry x="68.75" width="325" height="130" as="geometry" />
        </mxCell>
        <mxCell id="KDF5BMpV5rd6oGr7RErc-1" value="" style="group;aspect=fixed;" vertex="1" connectable="0" parent="KDF5BMpV5rd6oGr7RErc-182">
          <mxGeometry width="325" height="76.97000000000003" as="geometry" />
        </mxCell>
        <mxCell id="KDF5BMpV5rd6oGr7RErc-2" value="" style="shape=hexagon;perimeter=hexagonPerimeter2;whiteSpace=wrap;html=1;fixedSize=1;rounded=0;labelBackgroundColor=none;strokeColor=#4f514d;strokeWidth=2;align=center;verticalAlign=middle;fontFamily=Helvetica;fontSize=12;fillColor=#d5e8d4;aspect=fixed;" vertex="1" parent="KDF5BMpV5rd6oGr7RErc-1">
          <mxGeometry width="309.99375000000003" height="75.15" as="geometry" />
        </mxCell>
        <mxCell id="KDF5BMpV5rd6oGr7RErc-3" value="" style="line;strokeWidth=2;html=1;rounded=0;labelBackgroundColor=none;align=center;verticalAlign=middle;fontFamily=Helvetica;fontSize=12;strokeColor=#252323;aspect=fixed;" vertex="1" parent="KDF5BMpV5rd6oGr7RErc-1">
          <mxGeometry y="28.181250000000002" width="309.99375000000003" height="18.7875" as="geometry" />
        </mxCell>
        <mxCell id="KDF5BMpV5rd6oGr7RErc-4" value="" style="line;strokeWidth=2;direction=south;html=1;rounded=0;labelBackgroundColor=none;strokeColor=#000000;align=center;verticalAlign=middle;fontFamily=Helvetica;fontSize=12;fontColor=default;fillColor=#d5e8d4;aspect=fixed;" vertex="1" parent="KDF5BMpV5rd6oGr7RErc-1">
          <mxGeometry x="197.27272727272725" y="37.575" width="9.39375" height="37.575" as="geometry" />
        </mxCell>
        <mxCell id="KDF5BMpV5rd6oGr7RErc-6" value="void positivoNegativoCero" style="text;strokeColor=none;align=center;fillColor=none;html=1;verticalAlign=middle;whiteSpace=wrap;rounded=0;fontSize=20;fontFamily=Architects Daughter;fontStyle=1;fontColor=#000000;" vertex="1" parent="KDF5BMpV5rd6oGr7RErc-1">
          <mxGeometry x="-15" width="340" height="30" as="geometry" />
        </mxCell>
        <mxCell id="KDF5BMpV5rd6oGr7RErc-7" value="int n1" style="text;strokeColor=none;align=center;fillColor=none;html=1;verticalAlign=middle;whiteSpace=wrap;rounded=0;fontSize=23;fontFamily=Architects Daughter;fontStyle=1;fontColor=#000000;" vertex="1" parent="KDF5BMpV5rd6oGr7RErc-1">
          <mxGeometry x="70" y="41.360000000000014" width="60" height="30" as="geometry" />
        </mxCell>
        <mxCell id="KDF5BMpV5rd6oGr7RErc-8" value="int n2" style="text;strokeColor=none;align=center;fillColor=none;html=1;verticalAlign=middle;whiteSpace=wrap;rounded=0;fontSize=20;fontFamily=Architects Daughter;fontStyle=1;fontColor=#050505;" vertex="1" parent="KDF5BMpV5rd6oGr7RErc-1">
          <mxGeometry x="179.99" y="41.36000000000003" width="130" height="30" as="geometry" />
        </mxCell>
        <mxCell id="KDF5BMpV5rd6oGr7RErc-163" value="" style="line;strokeWidth=3;direction=south;html=1;hachureGap=4;fontFamily=Architects Daughter;fontSource=https://fonts.googleapis.com/css?family=Architects+Daughter;fontSize=20;strokeColor=#000000;" vertex="1" parent="KDF5BMpV5rd6oGr7RErc-182">
          <mxGeometry x="141.25" y="76.97" width="10" height="53.03" as="geometry" />
        </mxCell>
        <mxCell id="KDF5BMpV5rd6oGr7RErc-164" value="" style="line;strokeWidth=3;direction=south;html=1;hachureGap=4;fontFamily=Architects Daughter;fontSource=https://fonts.googleapis.com/css?family=Architects+Daughter;fontSize=20;strokeColor=#000000;" vertex="1" parent="KDF5BMpV5rd6oGr7RErc-180">
          <mxGeometry x="67" y="173.5" width="10" height="81.5" as="geometry" />
        </mxCell>
        <mxCell id="KDF5BMpV5rd6oGr7RErc-168" value="" style="line;strokeWidth=3;direction=south;html=1;hachureGap=4;fontFamily=Architects Daughter;fontSource=https://fonts.googleapis.com/css?family=Architects+Daughter;fontSize=20;strokeColor=#000000;" vertex="1" parent="KDF5BMpV5rd6oGr7RErc-180">
          <mxGeometry x="390" y="174.5" width="10" height="75.5" as="geometry" />
        </mxCell>
        <mxCell id="KDF5BMpV5rd6oGr7RErc-172" value="" style="line;strokeWidth=3;html=1;hachureGap=4;fontFamily=Architects Daughter;fontSource=https://fonts.googleapis.com/css?family=Architects+Daughter;fontSize=20;strokeColor=#000000;" vertex="1" parent="KDF5BMpV5rd6oGr7RErc-180">
          <mxGeometry x="270" y="472" width="263" height="10" as="geometry" />
        </mxCell>
        <mxCell id="KDF5BMpV5rd6oGr7RErc-173" value="" style="line;strokeWidth=3;direction=south;html=1;hachureGap=4;fontFamily=Architects Daughter;fontSource=https://fonts.googleapis.com/css?family=Architects+Daughter;fontSize=20;strokeColor=#000000;" vertex="1" parent="KDF5BMpV5rd6oGr7RErc-180">
          <mxGeometry x="267" y="290" width="10" height="95" as="geometry" />
        </mxCell>
        <mxCell id="KDF5BMpV5rd6oGr7RErc-174" value="" style="line;strokeWidth=3;direction=south;html=1;hachureGap=4;fontFamily=Architects Daughter;fontSource=https://fonts.googleapis.com/css?family=Architects+Daughter;fontSize=20;strokeColor=#000000;" vertex="1" parent="KDF5BMpV5rd6oGr7RErc-180">
          <mxGeometry x="527" y="290" width="10" height="95" as="geometry" />
        </mxCell>
        <mxCell id="KDF5BMpV5rd6oGr7RErc-175" value="" style="line;strokeWidth=3;direction=south;html=1;hachureGap=4;fontFamily=Architects Daughter;fontSource=https://fonts.googleapis.com/css?family=Architects+Daughter;fontSize=20;strokeColor=#000000;" vertex="1" parent="KDF5BMpV5rd6oGr7RErc-180">
          <mxGeometry x="267" y="436" width="10" height="40" as="geometry" />
        </mxCell>
        <mxCell id="KDF5BMpV5rd6oGr7RErc-176" value="" style="line;strokeWidth=3;direction=south;html=1;hachureGap=4;fontFamily=Architects Daughter;fontSource=https://fonts.googleapis.com/css?family=Architects+Daughter;fontSize=20;strokeColor=#000000;" vertex="1" parent="KDF5BMpV5rd6oGr7RErc-180">
          <mxGeometry x="527" y="435" width="10" height="40" as="geometry" />
        </mxCell>
        <mxCell id="KDF5BMpV5rd6oGr7RErc-177" value="" style="line;strokeWidth=3;html=1;hachureGap=4;fontFamily=Architects Daughter;fontSource=https://fonts.googleapis.com/css?family=Architects+Daughter;fontSize=20;strokeColor=#000000;" vertex="1" parent="KDF5BMpV5rd6oGr7RErc-180">
          <mxGeometry x="75" y="510" width="310" height="10" as="geometry" />
        </mxCell>
      </root>
    </mxGraphModel>
  </diagram>
</mxfile>
